# xmcd
#
# Track frame offsets:
# 150
# 10167
# 23404
# 36866
# 47472
# 56296
# 69620
# 82839
# 94255
# 107280
# 120363
# 128514
# 138286
# 151493
# 165241
# 178104
# 189912
# 206483
# 219116
# 231302
# 250024
# 263973
# 273869
# 291977
# 303519
#
# Disc length: 4227 seconds
#
#
# Revision: 0
# Processed by: cddbd v1.5.1PL0 Copyright (c) Steve Scherf et al.
# Submitted via: FreeRIP 2.941 
#
DISCID=3c108119
DTITLE=Las 100 Clásicas Rancheras Vol. 3 - Las 100 Clásicas Rancheras Vol. 3
DYEAR=1900
DGENRE=Las 100 Clásicas Rancheras
TTITLE0=Miguel Aceves Mejía-Los Laureles
TTITLE1=José Alfredo Jimenez-Tierra Sin Nombre
TTITLE2=Estella Nuñez-Al Ver Que Te Vas
TTITLE3=Federico Villa-Un Puño de Tierra
TTITLE4=Banda Sinaloense El Recodo De Cruz Lizárraga- Me Gusta Estar Contigo
TTITLE5=Miguel Aceves Mejía-Las Nieves de Enero
TTITLE6=Pedro Vargas Y La Rondalla Tapatía-Soy Puro Mexicano
TTITLE7=Luis Aguilar Y Antonio Aguilar-Camino de Guanajuato
TTITLE8=Yolanda Del Rio-Con Golpes de Pecho
TTITLE9=Los Barón De Apodaca-Mujeres Divinas
TTITLE10=Trío Calaveras-Mi Segundo Amor
TTITLE11=Lucha Villa-La Huella de Mis Besos
TTITLE12=Alicia Juarez-La Araña
TTITLE13=David Corpus Can Banda-El Chubasco
TTITLE14=Dueto Miseria-Retirada
TTITLE15=Nina Tolentino-Una Imploración
TTITLE16=Jorge Ibarra-Janitzio
TTITLE17=Banda Sinaloense El Recodo De Cruz Lizárraga- El Sauce y la Palma
TTITLE18=Rocio Banquells-Cartas Marcadas
TTITLE19=Gilberto Valenzuela-De Que Te Quiero...Te Quiero
TTITLE20=Aida Cuevas-Dos Arbolitos
TTITLE21=Fernando De La Mora-No Me Vuelvo a Enamorar
TTITLE22=Queta Jiménez La Prieta Linda-Adiós Amor, Mi Amor Te Vas
TTITLE23=Mariachi Vargas De Tecalitán-La Bikina
TTITLE24=Marco Antonio Muñiz Y Lucha Villa-Cuatro Vidas
EXTD=
EXTT0=
EXTT1=
EXTT2=
EXTT3=
EXTT4=
EXTT5=
EXTT6=
EXTT7=
EXTT8=
EXTT9=
EXTT10=
EXTT11=
EXTT12=
EXTT13=
EXTT14=
EXTT15=
EXTT16=
EXTT17=
EXTT18=
EXTT19=
EXTT20=
EXTT21=
EXTT22=
EXTT23=
EXTT24=
PLAYORDER=
